<svg width="22" height="21" viewBox="0 0 22 21" fill="none" xmlns="http://www.w3.org/2000/svg">
<path d="M8.80541 2.10021C7.0539 2.10021 5.37414 2.7644 4.13564 3.94668C2.89714 5.12895 2.20135 6.73246 2.20135 8.40444C2.20135 10.0764 2.89714 11.6799 4.13564 12.8622C5.37414 14.0445 7.0539 14.7087 8.80541 14.7087C10.5569 14.7087 12.2367 14.0445 13.4752 12.8622C14.7137 11.6799 15.4095 10.0764 15.4095 8.40444C15.4095 6.73246 14.7137 5.12895 13.4752 3.94668C12.2367 2.7644 10.5569 2.10021 8.80541 2.10021ZM5.43913e-08 8.40444C0.000200682 7.06675 0.334846 5.74841 0.976123 4.55901C1.6174 3.3696 2.54679 2.34348 3.68705 1.56591C4.82731 0.788341 6.14551 0.281788 7.5321 0.0883499C8.91868 -0.105088 10.3336 0.0201744 11.6593 0.453728C12.985 0.887281 14.1831 1.6166 15.1541 2.58108C16.1251 3.54556 16.841 4.71734 17.2422 5.99904C17.6434 7.28073 17.7184 8.63533 17.4609 9.95025C17.2034 11.2652 16.6208 12.5024 15.7617 13.5592L21.691 19.2194C21.8915 19.4175 22.0025 19.6829 22 19.9584C21.9974 20.2339 21.8817 20.4974 21.6776 20.6923C21.4735 20.8871 21.1975 20.9976 20.9089 21C20.6203 21.0024 20.3423 20.8965 20.1347 20.7051L14.2053 15.0449C12.9037 16.0096 11.3447 16.6062 9.7055 16.767C8.06631 16.9278 6.41275 16.6463 4.93284 15.9545C3.45294 15.2627 2.20608 14.1883 1.33405 12.8536C0.462019 11.519 -0.000183065 9.97746 5.43913e-08 8.40444Z" fill="#0D0303"/>
</svg>
